<svg width="75" height="24" viewBox="0 0 75 24" fill="none" xmlns="http://www.w3.org/2000/svg">
<path d="M66.9909 14.0489H74.9308V11.4992H70.6031V9.81135H74.0366V7.27973H70.6031V5.82529H74.9308V3.27565H66.9909V14.0489ZM54.8844 14.0489H57.996V8.68024L62.1805 14.0489H65.0597V3.27565H61.9481V8.64433L57.7635 3.27565H54.8844V14.0489ZM46.7479 10.2244L47.8744 6.99242L49.001 10.2244H46.7479ZM41.848 14.0489H45.3709L45.9432 12.4688H49.8058L50.3781 14.0489H53.9725L49.5196 3.27565H46.3008L41.848 14.0489ZM36.2328 14.3541C39.1835 14.3541 41.687 12.7202 41.687 9.07518V3.27565H38.1105V9.09319C38.1105 10.5475 37.6098 11.4813 36.2686 11.4813C34.9273 11.4813 34.4267 10.5475 34.4267 9.09319V3.27565H30.7786V9.07518C30.7786 12.7202 33.2821 14.3541 36.2328 14.3541Z" fill="white"/>
<path d="M6.04043 1.97822C8.00464 3.90352 8.79702 7.09527 8.05439 9.79008C7.79306 10.4979 7.85901 11.2974 8.23603 11.9538C8.55176 12.5033 9.17334 13.0381 9.81017 13.1519C9.88684 13.1711 9.9635 13.1874 10.0417 13.1996C10.4363 13.2935 10.8248 13.4459 11.1965 13.6614C11.5644 13.8745 11.9361 14.1846 12.2204 14.4755C12.2802 14.5471 12.3431 14.617 12.4097 14.6809C12.8681 15.1257 13.491 15.3988 14.1777 15.3988C14.8644 15.3988 15.4874 15.1257 15.9457 14.6809C16.0124 14.617 16.0753 14.5471 16.1351 14.4755C16.4193 14.1846 16.791 13.8745 17.1588 13.6614C17.5306 13.4459 17.9192 13.2935 18.3138 13.1996C18.392 13.1874 18.4686 13.1711 18.5453 13.1519C19.1821 13.0381 19.8036 12.5033 20.1193 11.9538C20.4964 11.2974 20.5623 10.4979 20.3009 9.79008C19.5561 7.08919 20.3538 3.89112 22.3273 1.96664C22.8698 2.3129 23.3412 2.81464 23.6347 3.3248L23.6354 3.32633C23.7052 3.44787 23.7688 3.57491 23.8263 3.70652C23.8807 3.83192 23.929 3.96189 23.9704 4.09584C24.1796 4.76989 24.191 5.47705 24.0263 6.13882V6.14268L24.0117 6.19661V6.19813L23.9965 6.25428C23.9704 6.34658 23.9389 6.44122 23.9037 6.53738L23.8937 6.57201L23.8929 6.57282C23.8669 6.66664 23.8416 6.76514 23.817 6.8675C23.7911 6.97372 23.768 7.07679 23.7474 7.17458C23.6354 7.71633 23.5611 8.30031 23.5611 8.83667V8.83819H23.5626C23.5626 9.22143 23.5902 9.59156 23.6424 9.94707C23.6508 10.0039 23.6607 10.0632 23.6707 10.1232C23.7221 10.4241 23.7918 10.718 23.8776 11.0042L23.8875 11.035L23.8883 11.0366L23.9059 11.0827C23.9221 11.1266 23.9167 11.1113 23.9228 11.1274V11.1289C23.9528 11.2143 23.9781 11.2944 23.9987 11.369L24.0102 11.4029C24.0532 11.5214 24.0854 11.646 24.1083 11.7737C24.1328 11.9062 24.1473 12.0415 24.1527 12.18C24.1835 12.9134 23.9719 13.7014 23.6339 14.2892C23.5619 14.4138 23.4845 14.5331 23.401 14.6471C23.3197 14.7579 23.2316 14.8648 23.1382 14.9671C22.6622 15.4857 22.0582 15.8489 21.4046 16.0375H21.4023L21.3464 16.0529L21.3471 16.0537L21.2911 16.0683C21.1946 16.0922 21.0973 16.1129 20.9992 16.1298L20.9639 16.1382H20.9624C20.8604 16.1653 20.7623 16.1922 20.6704 16.2191C20.5562 16.253 20.4558 16.2838 20.3707 16.3122C19.8527 16.483 19.3132 16.7116 18.8441 16.9832C18.7437 17.0409 18.6541 17.0955 18.5751 17.1456C18.5016 17.1925 18.415 17.2502 18.3169 17.3187C17.8785 17.6235 17.4831 17.9674 17.132 18.3421L17.1183 18.3575L17.1091 18.3668C17.0868 18.3944 17.0799 18.4036 17.0791 18.4044L17.0463 18.4437C17.0033 18.4945 16.9589 18.5436 16.9137 18.5922L16.8293 18.6769C16.7366 18.7693 16.637 18.8584 16.5305 18.9438C16.42 19.0323 16.3105 19.1123 16.2017 19.1817C15.6185 19.554 14.9242 19.7702 14.1769 19.7702V19.7718C13.6673 19.7718 13.1815 19.6703 12.7377 19.4863C12.6772 19.4609 12.6059 19.4286 12.5254 19.3894C12.1653 19.2124 11.8372 18.9808 11.5537 18.7053L11.5499 18.7022C11.5039 18.6584 11.4571 18.6099 11.4103 18.5591C11.3667 18.5114 11.3207 18.4575 11.274 18.4006L11.2571 18.3806L11.2464 18.3698L11.2449 18.3706C11.1751 18.299 11.1038 18.2283 11.0318 18.1597C10.9675 18.0975 10.8908 18.0274 10.8011 17.9466C10.3934 17.5811 9.92668 17.2248 9.46077 16.9547L9.45995 16.9531H9.45762C9.36651 16.9 9.27447 16.8493 9.18324 16.8015C9.07908 16.7469 8.98634 16.7 8.90514 16.6615C8.42302 16.433 7.92949 16.2614 7.42991 16.1429L7.40078 16.1382L7.34858 16.1291L7.30186 16.1206H7.30035C7.23056 16.1075 7.14935 16.089 7.0558 16.0653L7.02364 16.0582H7.02213C6.89793 16.036 6.77466 16.0021 6.65198 15.9582C6.52242 15.9121 6.39834 15.8575 6.2795 15.7951C5.63195 15.455 5.05873 14.8779 4.72074 14.2907V14.2885L4.71922 14.2862C4.64571 14.1584 4.57661 14.0184 4.513 13.8668C4.45172 13.7191 4.40045 13.5728 4.35979 13.4274C4.14518 12.6602 4.17349 11.8338 4.45172 11.0773L4.46174 11.0435L4.46244 11.042C4.48853 10.9481 4.51382 10.8496 4.53828 10.748C4.56368 10.6411 4.58733 10.5379 4.60726 10.4403C4.72004 9.89852 4.79437 9.31524 4.79437 8.779H4.79204C4.79204 8.39494 4.76513 8.02481 4.71235 7.6686C4.70466 7.61315 4.6908 7.53465 4.6732 7.43229C4.65479 7.3338 4.64023 7.25612 4.62799 7.19845C4.58512 6.99759 4.53456 6.80141 4.47781 6.60979L4.4671 6.57891H4.46558L4.44787 6.53048L4.4318 6.48591C4.40337 6.40507 4.3789 6.32423 4.35676 6.24422L4.34441 6.21041L4.34372 6.20889C4.30305 6.09343 4.27008 5.96955 4.24713 5.84098C4.22255 5.70949 4.20798 5.57333 4.20262 5.43552C4.17198 4.70145 4.38275 3.91428 4.72074 3.32562L4.72155 3.3248C4.80276 3.18396 4.88932 3.05317 4.97973 2.93315C5.07096 2.8123 5.1729 2.69462 5.28324 2.58068C5.50938 2.34835 5.76453 2.14597 6.04043 1.97822Z" fill="white"/>
<path d="M14.1473 24C12.6031 24 11.2014 23.3853 10.1713 22.3856C10.0205 22.2425 9.87868 22.0839 9.74528 21.9232C9.10693 21.2699 8.27005 20.5719 7.44307 20.0925C6.60782 19.6078 5.73483 19.2662 4.84587 19.0553C4.6704 19.0275 4.49797 18.9907 4.32624 18.9475C2.894 18.6913 1.49683 17.4893 0.78718 16.2544C-0.061118 14.7785 -0.208268 12.9802 0.378002 11.3889C0.620922 10.5063 0.805588 9.42982 0.805588 8.47022C0.805588 7.50148 0.663098 6.57194 0.400954 5.69317C0.337341 5.52775 0.281417 5.35918 0.233881 5.18757C-0.113314 4.22188 -0.0497002 3.03766 0.265339 1.99044C1.04548 -0.601312 1.86931 -0.234221 4.10487 0.702225C4.53933 0.883898 4.94327 1.11552 5.31563 1.38786C5.06886 1.55947 4.83899 1.75413 4.62904 1.97043C4.49949 2.10356 4.37459 2.24897 4.25657 2.40514C4.13773 2.56213 4.03124 2.72298 3.93698 2.88605L3.93617 2.88758C3.52233 3.60702 3.26485 4.5713 3.30248 5.46926C3.30935 5.6486 3.32846 5.82629 3.35992 5.99873C3.38986 6.16332 3.43192 6.32499 3.48715 6.48186C3.51546 6.58188 3.5461 6.68038 3.57989 6.77654L3.5814 6.77818L3.59981 6.82965L3.60214 6.83503L3.61123 6.86054C3.66261 7.03203 3.70711 7.20599 3.74463 7.37994C3.76304 7.46838 3.77679 7.53681 3.78599 7.58606C3.79368 7.63145 3.80521 7.70152 3.81896 7.79546C3.8665 8.12091 3.89178 8.44951 3.89178 8.77882H3.89026C3.89026 9.25891 3.82432 9.77995 3.72401 10.2624C3.70327 10.3639 3.68183 10.457 3.66191 10.5416C3.64187 10.6233 3.62125 10.704 3.59981 10.784C3.2603 11.7105 3.22652 12.7232 3.49017 13.6635C3.54237 13.852 3.60517 14.0329 3.67799 14.206C3.74847 14.3746 3.83353 14.5469 3.93465 14.7231V14.7247L3.93617 14.7269C4.35001 15.4464 5.0536 16.1528 5.84679 16.569C6.0085 16.6546 6.17092 16.7268 6.33193 16.7845C6.49516 16.8423 6.6599 16.8877 6.82465 16.9185C6.90818 16.9392 7.00395 16.96 7.11126 16.98L7.17184 16.9916H7.17336L7.20936 16.9977C7.64929 17.1024 8.08154 17.2531 8.50225 17.4532C8.59732 17.4971 8.67923 17.5386 8.74971 17.5756C8.83255 17.6187 8.91294 17.6633 8.99275 17.7095L8.99345 17.711H8.99496C9.40577 17.9487 9.82264 18.2674 10.1906 18.5974C10.2527 18.6528 10.3232 18.7191 10.4005 18.7929C10.4633 18.8537 10.5232 18.9122 10.5783 18.9683C10.6274 19.0275 10.6803 19.0884 10.7385 19.1514C10.7959 19.2146 10.8574 19.2776 10.9225 19.3393C11.2719 19.6778 11.6735 19.9618 12.1126 20.1772C12.1876 20.2141 12.2758 20.2534 12.3763 20.2949C12.9211 20.5204 13.5189 20.6459 14.1465 20.6459V20.6474C15.0607 20.6474 15.9168 20.3796 16.6387 19.9179C16.7836 19.8256 16.9185 19.7286 17.0427 19.6293C17.1515 19.5424 17.258 19.4484 17.3607 19.3492C17.4197 19.3084 17.4595 19.2608 17.4871 19.2223C17.5538 19.1538 17.6182 19.083 17.6795 19.0107L17.681 19.0092L17.7163 18.9675L17.7178 18.9637C17.7309 18.9483 17.7385 18.9399 17.7423 18.9352L17.7461 18.9307C17.7461 18.9307 17.7277 18.9552 17.7553 18.9214C18.0619 18.5967 18.4045 18.3004 18.7816 18.038C18.8428 17.9958 18.9202 17.9442 19.0122 17.8857C19.0995 17.8302 19.1793 17.7818 19.2505 17.7403C19.6582 17.5033 20.1426 17.3001 20.6139 17.1447C20.7212 17.1093 20.8116 17.08 20.8859 17.0585C20.9726 17.0331 21.0523 17.0108 21.1251 16.9916C21.2415 16.9708 21.358 16.9462 21.4722 16.9176L21.5397 16.8992H21.5412C21.5718 16.8914 21.5957 16.8845 21.6101 16.8807L21.6125 16.8792C22.4172 16.6482 23.1613 16.1997 23.7491 15.5595C23.8625 15.4356 23.9714 15.3041 24.0741 15.164C24.1752 15.0263 24.2694 14.8809 24.3576 14.7284C24.7715 14.0089 25.0297 13.0441 24.993 12.1453C24.9853 11.966 24.9662 11.789 24.9347 11.6167C24.9033 11.4451 24.8596 11.278 24.8021 11.118C24.7745 11.0188 24.7454 10.9249 24.7148 10.8379L24.7139 10.8388C24.6963 10.7887 24.6979 10.7902 24.694 10.781L24.6925 10.7779L24.6803 10.7448C24.6051 10.494 24.5453 10.237 24.5001 9.97531C24.4917 9.92536 24.4834 9.87377 24.4757 9.81996C24.4273 9.4944 24.4029 9.16661 24.4029 8.83801H24.4044V8.83649C24.4044 8.35639 24.4703 7.83465 24.5706 7.35292C24.5914 7.25138 24.6128 7.15826 24.6327 7.07286C24.6526 6.99132 24.6734 6.91049 24.6948 6.83047C24.7355 6.72121 24.7722 6.60809 24.8052 6.4904C24.8098 6.47426 24.8159 6.45262 24.8236 6.42267C24.8251 6.41495 24.8313 6.39413 24.8412 6.35342L24.842 6.3526C25.045 5.53782 25.0305 4.66665 24.7722 3.8356C24.7231 3.67709 24.6642 3.51706 24.5944 3.35703C24.5269 3.20238 24.4489 3.04691 24.3592 2.89144L24.3583 2.88992C24.0411 2.33823 23.5544 1.79414 22.9874 1.38248C23.3575 1.11237 23.7583 0.882378 24.1898 0.702225C26.4253 -0.234221 27.2492 -0.601312 28.0293 1.99044C28.3443 3.03766 28.4078 4.22188 28.0608 5.18757C28.0132 5.35918 27.9573 5.52775 27.8944 5.69317C27.6315 6.57194 27.489 7.50148 27.489 8.47022C27.4897 9.42982 27.6737 10.5063 27.9166 11.3889C28.5029 12.9802 28.3558 14.7785 27.5075 16.2544C26.7978 17.4893 25.4006 18.6913 23.9691 18.9475C23.7967 18.9907 23.6242 19.0275 23.4486 19.0553C22.5597 19.2662 21.6868 19.6078 20.8514 20.0925C20.0246 20.5719 19.1877 21.2699 18.5494 21.9232C18.416 22.0839 18.2735 22.2425 18.1232 22.3856C17.0932 23.3853 15.6915 24 14.1473 24Z" fill="white"/>
<path d="M8.91656 10.0295L8.89327 10.1021C8.72456 10.5587 8.76849 11.0832 9.01082 11.5048C9.22345 11.8749 9.64347 12.2099 9.96712 12.2675L10.0279 12.2808C10.0785 12.2934 10.1288 12.3041 10.1799 12.3122L10.248 12.3256C10.7362 12.4417 11.2058 12.6296 11.644 12.8834C12.1943 13.2027 12.6416 13.6238 12.8589 13.8463L12.9056 13.8979C12.9445 13.9443 12.9847 13.9898 13.0275 14.0312C13.3407 14.3352 13.7481 14.5006 14.1779 14.5006C14.608 14.5006 15.0149 14.3352 15.3241 14.035C15.3715 13.9896 15.4109 13.9448 15.4488 13.8994L15.4967 13.8463C15.7142 13.6238 16.1614 13.2027 16.7118 12.8834C17.1498 12.6296 17.6195 12.4417 18.1075 12.3256L18.1757 12.3122C18.2268 12.3041 18.2772 12.2934 18.3277 12.2808L18.3887 12.2675C18.7121 12.2099 19.1321 11.8749 19.3445 11.5048C19.5871 11.0832 19.631 10.5587 19.4623 10.1021L19.439 10.0295C18.8981 8.06794 19.0802 5.9288 19.8566 4.07954C19.5093 4.21945 19.0063 4.46464 18.3211 4.96861C17.7986 5.35383 17.3735 5.81381 17.0578 6.33648C16.4902 7.27538 16.447 8.15276 16.4472 8.39959C16.448 8.77966 16.4864 9.13248 16.5611 9.44798C16.6069 9.64264 16.584 9.75343 16.5724 9.77694C16.5411 9.83988 16.5083 9.87462 16.4427 9.91521C16.3033 10.0012 16.1071 10.0613 15.9124 10.121C15.7201 10.1801 15.5384 10.2357 15.3876 10.3242C15.1583 10.4585 14.9107 10.6547 14.7074 10.8629C14.6939 10.8772 14.6797 10.8925 14.6682 10.9062C14.6568 10.9197 14.6453 10.9335 14.6307 10.9476C14.5379 11.0378 14.4168 11.0874 14.2897 11.0874H14.066C13.9388 11.0874 13.8176 11.0375 13.7229 10.9454C13.7102 10.9335 13.699 10.92 13.6882 10.907C13.674 10.8901 13.6594 10.8741 13.6472 10.8618C13.445 10.6547 13.1977 10.4587 12.9685 10.3242C12.8172 10.2357 12.6355 10.1801 12.4385 10.1197C12.2485 10.0613 12.0524 10.0012 11.9134 9.91545C11.8475 9.87462 11.8146 9.83952 11.783 9.77671C11.7715 9.75343 11.7487 9.64264 11.7944 9.44822C11.8684 9.13576 11.9078 8.77288 11.9084 8.39912C11.9086 8.15252 11.8653 7.27538 11.2979 6.33648C10.9821 5.81381 10.557 5.35383 10.0341 4.96861C9.3487 4.46429 8.8455 4.21898 8.4983 4.07919C9.27459 5.9288 9.45682 8.06876 8.91656 10.0295Z" fill="white"/>
<path d="M74.6327 16.1425H74.0366C74.0689 15.9258 74.2041 15.8352 74.362 15.8352C74.5554 15.8352 74.6649 15.9743 74.6327 16.1425ZM75 16.8478L74.8969 16.6602C74.797 16.7379 74.6456 16.7993 74.4909 16.7993C74.1107 16.7993 74.014 16.5632 74.0205 16.3432H74.9485C74.9613 16.2979 74.971 16.2138 74.971 16.1523C74.971 15.8158 74.7067 15.5959 74.3523 15.5959C73.9915 15.5959 73.6499 15.8774 73.6499 16.3238C73.6499 16.7573 73.9496 17.0711 74.3782 17.0711C74.652 17.0711 74.8679 16.9772 75 16.8478ZM73.492 16.9385L73.4534 16.7509C73.4083 16.7831 73.3471 16.8156 73.2536 16.8156C73.1345 16.8156 73.0958 16.7476 73.0958 16.5891V15.8805H73.4373V15.6346H73.0958V15.2529L72.722 15.3014V15.6346H72.5222V15.8805H72.722V16.6116C72.722 16.9222 72.8735 17.0711 73.1151 17.0711C73.273 17.0711 73.4179 17.0064 73.492 16.9385ZM72.3902 16.5922C72.3902 16.4046 72.2419 16.2332 71.8746 16.1555C71.7263 16.12 71.6297 16.0779 71.6297 15.984C71.6297 15.8999 71.7039 15.8482 71.8553 15.8482C71.9939 15.8482 72.1388 15.8935 72.2581 15.9646L72.3193 15.7187C72.2742 15.6929 72.0744 15.5926 71.8457 15.5926C71.4687 15.5926 71.2978 15.7997 71.2978 16.0196C71.2978 16.217 71.4203 16.3982 71.7619 16.4726C71.9519 16.5178 72.0583 16.5535 72.0583 16.6538C72.0583 16.7702 71.9552 16.8156 71.807 16.8156C71.6007 16.8156 71.4299 16.7282 71.3172 16.6602L71.256 16.9191C71.314 16.9546 71.5267 17.0776 71.8134 17.0776C72.1711 17.0776 72.3902 16.8931 72.3902 16.5922ZM70.6986 16.1425H70.1025C70.1347 15.9258 70.27 15.8352 70.4279 15.8352C70.6213 15.8352 70.7308 15.9743 70.6986 16.1425ZM71.0659 16.8478L70.9628 16.6602C70.8629 16.7379 70.7115 16.7993 70.5568 16.7993C70.1766 16.7993 70.0799 16.5632 70.0864 16.3432H71.0144C71.0272 16.2979 71.0368 16.2138 71.0368 16.1523C71.0368 15.8158 70.7727 15.5959 70.4182 15.5959C70.0573 15.5959 69.7159 15.8774 69.7159 16.3238C69.7159 16.7573 70.0155 17.0711 70.444 17.0711C70.7179 17.0711 70.9337 16.9772 71.0659 16.8478ZM69.0038 16.5502C68.9328 16.6829 68.7846 16.7929 68.6139 16.7929C68.4045 16.7929 68.2272 16.6343 68.2272 16.3335C68.2272 16.0326 68.4045 15.8741 68.6139 15.8741C68.7846 15.8741 68.9328 15.984 69.0038 16.1167V16.5502ZM69.5354 16.9999V16.8575C69.5128 16.8705 69.4903 16.877 69.4613 16.877C69.4065 16.877 69.3775 16.8414 69.3775 16.7573V15.0426L69.0038 15.0911V15.8158C68.8813 15.6703 68.6944 15.5959 68.5076 15.5959C68.1305 15.5959 67.8535 15.9129 67.8535 16.3335C67.8535 16.754 68.1305 17.0711 68.5076 17.0711C68.7041 17.0711 68.9039 16.9869 69.0135 16.8381C69.0456 16.9935 69.152 17.0646 69.3228 17.0646C69.413 17.0646 69.5031 17.029 69.5354 16.9999ZM67.7214 15.9615V15.5959C67.4861 15.5959 67.2832 15.7284 67.2026 15.8902L67.1865 15.6056L66.845 15.6509V17.0323H67.2187V16.2688C67.2187 16.0293 67.4668 15.8999 67.7214 15.9615ZM66.2006 16.3335C66.2006 16.6182 66.0362 16.809 65.7881 16.809C65.54 16.809 65.3724 16.6182 65.3724 16.3335C65.3724 16.052 65.5368 15.8579 65.7881 15.8579C66.0362 15.8579 66.2006 16.052 66.2006 16.3335ZM66.5678 16.3335C66.5678 15.9129 66.236 15.5829 65.7881 15.5829C65.337 15.5829 65.0052 15.9129 65.0052 16.3335C65.0052 16.7573 65.337 17.084 65.7881 17.084C66.236 17.084 66.5678 16.7573 66.5678 16.3335ZM64.712 17.0323V15.0911H64.3607V16.3723L63.349 15.0911H63.0751V17.0323H63.4263V15.7511L64.438 17.0323H64.712ZM61.7863 16.3335C61.7863 16.6182 61.6219 16.809 61.3739 16.809C61.1257 16.809 60.9581 16.6182 60.9581 16.3335C60.9581 16.052 61.1226 15.8579 61.3739 15.8579C61.6219 15.8579 61.7863 16.052 61.7863 16.3335ZM62.1536 16.3335C62.1536 15.9129 61.8217 15.5829 61.3739 15.5829C60.9227 15.5829 60.5909 15.9129 60.5909 16.3335C60.5909 16.7573 60.9227 17.084 61.3739 17.084C61.8217 17.084 62.1536 16.7573 62.1536 16.3335ZM59.8917 16.5502C59.8208 16.6829 59.6726 16.7929 59.5018 16.7929C59.2924 16.7929 59.1152 16.6343 59.1152 16.3335C59.1152 16.0326 59.2924 15.8741 59.5018 15.8741C59.6726 15.8741 59.8208 15.984 59.8917 16.1167V16.5502ZM60.4234 16.9999V16.8575C60.4008 16.8705 60.3782 16.877 60.3493 16.877C60.2944 16.877 60.2655 16.8414 60.2655 16.7573V15.0426L59.8917 15.0911V15.8158C59.7693 15.6703 59.5825 15.5959 59.3956 15.5959C59.0185 15.5959 58.7414 15.9129 58.7414 16.3335C58.7414 16.754 59.0185 17.0711 59.3956 17.0711C59.5921 17.0711 59.7918 16.9869 59.9013 16.8381C59.9336 16.9935 60.04 17.0646 60.2107 17.0646C60.3009 17.0646 60.3911 17.029 60.4234 16.9999ZM57.4043 16.6408C57.2689 16.7767 57.1111 16.8317 57.037 16.8317C56.9435 16.8317 56.8565 16.7961 56.8565 16.6699C56.8565 16.5114 57.0692 16.3982 57.4043 16.3659V16.6408ZM57.9359 17.0032V16.8608C57.9166 16.8705 57.8909 16.8803 57.8619 16.8803C57.8071 16.8803 57.7781 16.8414 57.7781 16.7573V16.094C57.7781 15.709 57.5268 15.5959 57.2174 15.5959C57.0338 15.5959 56.7342 15.6929 56.6214 15.7576V16.0359C56.763 15.9388 57.0079 15.8547 57.1562 15.8547C57.3334 15.8547 57.4043 15.9323 57.4043 16.0973V16.1523C56.9242 16.1944 56.5247 16.3885 56.5247 16.7152C56.5247 16.932 56.6858 17.0711 56.8888 17.0711C57.0692 17.0711 57.2561 16.9999 57.414 16.8447C57.4461 16.9935 57.5493 17.0646 57.7233 17.0646C57.8071 17.0646 57.894 17.0388 57.9359 17.0032ZM56.3925 16.9385L56.3539 16.7509C56.3088 16.7831 56.2476 16.8156 56.1542 16.8156C56.0349 16.8156 55.9963 16.7476 55.9963 16.5891V15.8805H56.3378V15.6346H55.9963V15.2529L55.6226 15.3014V15.6346H55.4227V15.8805H55.6226V16.6116C55.6226 16.9222 55.7739 17.0711 56.0156 17.0711C56.1735 17.0711 56.3185 17.0064 56.3925 16.9385ZM55.2745 15.9615V15.5959C55.0393 15.5959 54.8363 15.7284 54.7557 15.8902L54.7396 15.6056L54.3982 15.6509V17.0323H54.7719V16.2688C54.7719 16.0293 55.02 15.8999 55.2745 15.9615ZM53.7441 16.1425H53.148C53.1802 15.9258 53.3156 15.8352 53.4734 15.8352C53.6667 15.8352 53.7762 15.9743 53.7441 16.1425ZM54.1114 16.8478L54.0083 16.6602C53.9084 16.7379 53.7569 16.7993 53.6023 16.7993C53.2221 16.7993 53.1254 16.5632 53.1318 16.3432H54.0598C54.0727 16.2979 54.0824 16.2138 54.0824 16.1523C54.0824 15.8158 53.8182 15.5959 53.4638 15.5959C53.1028 15.5959 52.7613 15.8774 52.7613 16.3238C52.7613 16.7573 53.061 17.0711 53.4895 17.0711C53.7634 17.0711 53.9793 16.9772 54.1114 16.8478ZM52.1781 16.3335C52.1781 16.6343 52.0009 16.7929 51.7947 16.7929C51.6207 16.7929 51.4725 16.6829 51.4016 16.5502V16.1167C51.4725 15.984 51.6207 15.8741 51.7947 15.8741C52.0009 15.8741 52.1781 16.0326 52.1781 16.3335ZM52.5519 16.3335C52.5519 15.9129 52.2748 15.5959 51.8978 15.5959C51.7109 15.5959 51.524 15.6703 51.4016 15.8158V15.0426L51.0278 15.0911V17.0549H51.2824L51.3758 16.8317C51.495 16.9869 51.7012 17.0711 51.8978 17.0711C52.2748 17.0711 52.5519 16.754 52.5519 16.3335ZM50.1354 16.2785H49.565L49.8518 15.5732L50.1354 16.2785ZM50.8312 17.0323L50.0096 15.0911H49.7036L48.882 17.0323H49.2621L49.4587 16.5535H50.2416L50.4382 17.0323H50.8312ZM47.7704 16.1425H47.1743C47.2064 15.9258 47.3418 15.8352 47.4997 15.8352C47.693 15.8352 47.8025 15.9743 47.7704 16.1425ZM48.1377 16.8478L48.0346 16.6602C47.9346 16.7379 47.7833 16.7993 47.6286 16.7993C47.2484 16.7993 47.1517 16.5632 47.1581 16.3432H48.0861C48.099 16.2979 48.1087 16.2138 48.1087 16.1523C48.1087 15.8158 47.8444 15.5959 47.49 15.5959C47.1291 15.5959 46.7876 15.8774 46.7876 16.3238C46.7876 16.7573 47.0873 17.0711 47.5158 17.0711C47.7897 17.0711 48.0056 16.9772 48.1377 16.8478ZM46.0755 16.5502C46.0047 16.6829 45.8565 16.7929 45.6857 16.7929C45.4762 16.7929 45.299 16.6343 45.299 16.3335C45.299 16.0326 45.4762 15.8741 45.6857 15.8741C45.8565 15.8741 46.0047 15.984 46.0755 16.1167V16.5502ZM46.6071 16.9999V16.8575C46.5846 16.8705 46.562 16.877 46.533 16.877C46.4783 16.877 46.4493 16.8414 46.4493 16.7573V15.0426L46.0755 15.0911V15.8158C45.9531 15.6703 45.7662 15.5959 45.5793 15.5959C45.2024 15.5959 44.9252 15.9129 44.9252 16.3335C44.9252 16.754 45.2024 17.0711 45.5793 17.0711C45.7758 17.0711 45.9756 16.9869 46.0852 16.8381C46.1174 16.9935 46.2237 17.0646 46.3945 17.0646C46.4847 17.0646 46.575 17.029 46.6071 16.9999ZM44.2196 16.6408C44.0844 16.7767 43.9264 16.8317 43.8523 16.8317C43.7588 16.8317 43.6719 16.7961 43.6719 16.6699C43.6719 16.5114 43.8845 16.3982 44.2196 16.3659V16.6408ZM44.7513 17.0032V16.8608C44.7319 16.8705 44.7062 16.8803 44.6772 16.8803C44.6224 16.8803 44.5934 16.8414 44.5934 16.7573V16.094C44.5934 15.709 44.3421 15.5959 44.0327 15.5959C43.8492 15.5959 43.5495 15.6929 43.4367 15.7576V16.0359C43.5785 15.9388 43.8233 15.8547 43.9716 15.8547C44.1488 15.8547 44.2196 15.9323 44.2196 16.0973V16.1523C43.7395 16.1944 43.34 16.3885 43.34 16.7152C43.34 16.932 43.5011 17.0711 43.7041 17.0711C43.8846 17.0711 44.0715 16.9999 44.2293 16.8447C44.2616 16.9935 44.3647 17.0646 44.5386 17.0646C44.6224 17.0646 44.7094 17.0388 44.7513 17.0032ZM42.6538 16.5502C42.5828 16.6829 42.4346 16.7929 42.2638 16.7929C42.0544 16.7929 41.8772 16.6343 41.8772 16.3335C41.8772 16.0326 42.0544 15.8741 42.2638 15.8741C42.4346 15.8741 42.5828 15.984 42.6538 16.1167V16.5502ZM43.1854 16.9999V16.8575C43.1628 16.8705 43.1403 16.877 43.1113 16.877C43.0565 16.877 43.0275 16.8414 43.0275 16.7573V15.0426L42.6538 15.0911V15.8158C42.5313 15.6703 42.3444 15.5959 42.1576 15.5959C41.7805 15.5959 41.5035 15.9129 41.5035 16.3335C41.5035 16.754 41.7805 17.0711 42.1576 17.0711C42.3541 17.0711 42.5538 16.9869 42.6634 16.8381C42.6956 16.9935 42.802 17.0646 42.9728 17.0646C43.0629 17.0646 43.1531 17.029 43.1854 16.9999ZM41.2166 17.0323V15.5959L40.8429 15.6443V17.0323H41.2166ZM41.0298 15.0426C40.9202 15.0426 40.8332 15.1299 40.8332 15.2399C40.8332 15.3467 40.9202 15.4341 41.0298 15.4341C41.1394 15.4341 41.2263 15.3467 41.2263 15.2399C41.2263 15.1299 41.1394 15.0426 41.0298 15.0426ZM40.5723 16.5922C40.5723 16.4046 40.424 16.2332 40.0568 16.1555C39.9086 16.12 39.8119 16.0779 39.8119 15.984C39.8119 15.8999 39.886 15.8482 40.0374 15.8482C40.176 15.8482 40.3209 15.8935 40.4402 15.9646L40.5014 15.7187C40.4563 15.6929 40.2565 15.5926 40.0278 15.5926C39.6508 15.5926 39.48 15.7997 39.48 16.0196C39.48 16.217 39.6024 16.3982 39.944 16.4726C40.134 16.5178 40.2404 16.5535 40.2404 16.6538C40.2404 16.7702 40.1373 16.8156 39.9891 16.8156C39.7829 16.8156 39.6121 16.7282 39.4993 16.6602L39.4381 16.9191C39.4961 16.9546 39.7088 17.0776 39.9955 17.0776C40.3532 17.0776 40.5723 16.8931 40.5723 16.5922ZM39.3221 15.9615V15.5959C39.0868 15.5959 38.8839 15.7284 38.8034 15.8902L38.7872 15.6056L38.4457 15.6509V17.0323H38.8195V16.2688C38.8195 16.0293 39.0677 15.8999 39.3221 15.9615ZM37.7916 16.1425H37.1956C37.2277 15.9258 37.3631 15.8352 37.521 15.8352C37.7143 15.8352 37.8239 15.9743 37.7916 16.1425ZM38.159 16.8478L38.0559 16.6602C37.956 16.7379 37.8046 16.7993 37.6498 16.7993C37.2697 16.7993 37.173 16.5632 37.1795 16.3432H38.1074C38.1203 16.2979 38.13 16.2138 38.13 16.1523C38.13 15.8158 37.8657 15.5959 37.5113 15.5959C37.1505 15.5959 36.8089 15.8774 36.8089 16.3238C36.8089 16.7573 37.1085 17.0711 37.5371 17.0711C37.811 17.0711 38.0269 16.9772 38.159 16.8478ZM36.7412 15.6346H36.3868L36.0066 16.5535L35.6232 15.6346H35.2558L35.8648 17.0323H36.1355L36.7412 15.6346ZM35.0818 17.0323V15.5959L34.7081 15.6443V17.0323H35.0818ZM34.895 15.0426C34.7855 15.0426 34.6984 15.1299 34.6984 15.2399C34.6984 15.3467 34.7855 15.4341 34.895 15.4341C35.0045 15.4341 35.0915 15.3467 35.0915 15.2399C35.0915 15.1299 35.0045 15.0426 34.895 15.0426ZM34.344 17.0323V16.2008C34.344 15.8547 34.2055 15.5959 33.835 15.5959C33.6223 15.5959 33.4129 15.7156 33.3194 15.8935L33.3033 15.6056L32.9618 15.6509V17.0323H33.3355V16.2526C33.3355 16.0584 33.5288 15.8966 33.706 15.8966C33.8768 15.8966 33.9702 15.9873 33.9702 16.2591V17.0323H34.344ZM32.5783 16.1361V15.0911H32.1949V16.1231C32.1949 16.5438 32.0144 16.7476 31.6987 16.7476C31.383 16.7476 31.2025 16.5438 31.2025 16.1231V15.0911H30.803V16.1361C30.803 16.7929 31.1832 17.0873 31.6923 17.0873C32.2013 17.0873 32.5783 16.7929 32.5783 16.1361Z" fill="white"/>
</svg>
