<svg width="94" height="54" viewBox="0 0 94 54" fill="none" xmlns="http://www.w3.org/2000/svg">
<path d="M25.6319 35.531C24.6347 38.3041 23.0108 39.9125 20.7601 39.9125C20.1874 39.8733 19.632 39.7051 19.1375 39.4212C18.6431 39.1372 18.2232 38.7453 17.9111 38.2763C16.8735 36.9448 16.0917 35.4417 15.6034 33.8394C14.9021 31.6962 14.3968 29.4969 14.0935 27.2671C13.6881 24.6696 13.4786 22.0466 13.4667 19.4193C13.4201 16.6356 13.6106 13.853 14.0365 11.1C14.2957 9.30107 14.7838 7.5405 15.4895 5.85884C15.9146 4.78422 16.6101 3.8307 17.5123 3.08575C18.1838 2.57978 19 2.2891 19.8484 2.25382C20.4471 2.27655 21.0332 2.4275 21.565 2.69592C22.0968 2.96434 22.5613 3.34363 22.9253 3.80675C23.9907 5.14831 24.766 6.6859 25.2045 8.3269C25.9174 10.4733 26.4042 12.6846 26.6575 14.9269C26.9983 17.6876 27.1696 20.4656 27.1703 23.2462C27.3168 27.4305 26.7978 31.6118 25.6319 35.6419M1.81437 30.5117C2.62736 32.8769 3.92625 35.0564 5.632 36.9175C7.32806 38.7012 9.39736 40.1102 11.7003 41.0494C14.2584 42.0279 16.9861 42.5175 19.7345 42.4914C22.7968 42.5414 25.8384 41.9945 28.6803 40.883C31.1275 39.8858 33.3026 38.3477 35.0335 36.3906C36.7788 34.3575 38.078 31.9982 38.8511 29.4579C39.7294 26.512 40.1613 23.4571 40.1332 20.3899C40.1401 17.6979 39.7565 15.0186 38.9936 12.4311C38.3102 10.0651 37.1263 7.86429 35.5178 5.96977C33.8667 4.08277 31.7899 2.59275 29.4495 1.61601C26.6461 0.476025 23.6262 -0.0721721 20.5892 0.00761156C17.8667 0.00585014 15.1656 0.475342 12.612 1.39416C10.1851 2.30145 7.99564 3.72223 6.2018 5.5538C4.34265 7.52609 2.91746 9.84758 2.0138 12.3756C0.960766 15.4305 0.45014 18.6378 0.503834 21.8596C0.458438 24.7936 0.900999 27.7153 1.81437 30.5117Z" fill="#555555"/>
<path d="M76.1161 7.77239C75.5429 6.35099 74.6123 5.09237 73.4096 4.1119C72.0239 3.00065 70.4121 2.18785 68.6803 1.72704C66.4026 1.14547 64.0548 0.865639 61.7003 0.895106H40.3899V3.03039L44.1505 3.41862V38.1932L40.3899 39.7739V41.6042H61.8427V39.6353L56.5151 39.4411V25.3261C57.0706 25.5288 57.6423 25.6865 58.2245 25.7975C59.0042 25.9413 59.7957 26.0156 60.5892 26.0194C62.556 26.0203 64.5162 25.7969 66.4296 25.3538C68.3231 24.9151 70.1187 24.1445 71.7287 23.0799C73.275 21.958 74.5491 20.519 75.4609 18.8648C76.5252 16.8627 77.045 14.6288 76.9708 12.3757C76.9741 10.8036 76.6845 9.24394 76.1161 7.77239ZM63.6091 20.8614C63.1062 21.6539 62.3944 22.3009 61.5477 22.7349C60.7009 23.169 59.7502 23.3743 58.7943 23.3295C58.3488 23.3171 57.9074 23.2424 57.4838 23.1076C57.0666 22.9863 56.6652 22.8188 56.2872 22.6084V3.19678H58.253C59.3141 3.13175 60.3728 3.357 61.3092 3.84706C62.2457 4.33712 63.0226 5.07244 63.5521 5.96987C64.7082 8.11233 65.268 10.512 65.176 12.9303C65.3884 15.7075 64.817 18.4883 63.5236 20.9723L63.6091 20.8614Z" fill="#555555"/>
<path d="M84.4632 38.8312L85.4604 32.3699C85.4259 31.682 85.1296 31.0313 84.6293 30.5443C84.1291 30.0574 83.4605 29.769 82.7539 29.7354H82.0701C81.3634 29.769 80.6949 30.0574 80.1946 30.5443C79.6943 31.0313 79.3981 31.682 79.3636 32.3699L78.3664 38.8312H71.2155C70.4848 38.8668 69.7963 39.1746 69.2924 39.6908C68.7886 40.2071 68.508 40.8922 68.5089 41.6043V42.2421C68.5435 42.9299 68.8397 43.5806 69.34 44.0676C69.8403 44.5546 70.5088 44.8429 71.2155 44.8765H77.4263L76.4291 51.3656C76.4637 52.0534 76.7599 52.7041 77.2602 53.1911C77.7605 53.678 78.429 53.9664 79.1357 54H79.7909C80.5225 54.0009 81.2263 53.7278 81.7567 53.2374C82.2871 52.747 82.6033 52.0767 82.6399 51.3656L83.6655 44.8765H90.788C91.1445 44.8802 91.4981 44.8146 91.8282 44.6835C92.1583 44.5525 92.4582 44.3585 92.7103 44.1132C92.9624 43.8678 93.1616 43.5759 93.2963 43.2546C93.4309 42.9333 93.4983 42.5891 93.4945 42.2421V41.6043C93.5181 41.2459 93.4653 40.8866 93.3396 40.549C93.2138 40.2113 93.0177 39.9027 92.7635 39.6423C92.5094 39.3819 92.2028 39.1755 91.8628 39.0359C91.5229 38.8963 91.1569 38.8266 90.788 38.8312H84.4632Z" fill="#FBB03B"/>
</svg>
