<svg width="20" height="20" viewBox="0 0 20 20" fill="none" xmlns="http://www.w3.org/2000/svg">
<path fill-rule="evenodd" clip-rule="evenodd" d="M17.05 2.89996C15.15 0.999963 12.65 0 10.05 0C4.54999 0 0.149994 4.39996 0.149994 9.89996C0.149994 11.6 0.649982 13.4 1.44998 14.9L0.0499878 20L5.35001 18.6C6.75001 19.4 8.44999 19.8 10.05 19.8C15.55 19.8 19.95 15.4 19.95 9.89996C19.95 7.19996 18.95 4.69996 17.05 2.89996ZM10.05 18.1C8.54999 18.1 7.15001 17.7 5.85001 17L5.54999 16.8L2.44998 17.6L3.25 14.6L3.04999 14.3C2.24999 13 1.75 11.5 1.75 9.89996C1.75 5.39996 5.44998 1.69995 9.94998 1.69995C12.15 1.69995 14.25 2.59998 15.75 4.09998C17.35 5.69998 18.15 7.69996 18.15 9.89996C18.35 14.4 14.65 18.1 10.05 18.1ZM14.55 11.9C14.35 11.8 13.05 11.2 12.85 11.1C12.65 11 12.45 11 12.25 11.2C12.05 11.4 11.65 12 11.45 12.2C11.35 12.4 11.15 12.4 10.95 12.3C10.75 12.2 9.94998 11.9 8.94998 11.1C8.24998 10.4 7.74999 9.59996 7.54999 9.39996C7.44999 9.19996 7.54999 8.99996 7.64999 8.89996C7.74999 8.79996 7.84999 8.6 8.04999 8.5C8.14999 8.4 8.25 8.29998 8.25 8.09998C8.35 7.89998 8.25 7.79995 8.25 7.69995C8.15 7.59995 7.64998 6.39996 7.44998 5.89996C7.24998 5.39996 7.05001 5.5 6.85001 5.5C6.75001 5.5 6.55001 5.5 6.35001 5.5C6.15001 5.5 5.94999 5.59999 5.64999 5.79999C5.44999 5.99999 4.75 6.59996 4.75 7.89996C4.75 9.09996 5.65 10.3 5.75 10.5C5.85 10.7 7.44998 13.2 9.94998 14.2C10.55 14.5 11.05 14.6 11.35 14.7C11.95 14.9 12.45 14.9 12.95 14.8C13.45 14.7 14.45 14.2 14.65 13.6C14.85 13 14.85 12.5 14.75 12.4C15.05 12.1 14.85 12.1 14.55 11.9Z" fill="#999999"/>
</svg>
